<svg width="24" height="24" viewBox="0 0 24 24" fill="none" xmlns="http://www.w3.org/2000/svg">
<path d="M15 4.99813C15 4.67969 14.7531 4 14.0031 4C13.5663 4 13.1634 4.2835 13.0378 4.72438L9.03781 18.7244C9.01155 18.8161 8.99903 18.9085 8.99903 18.9994C8.97187 19.3219 9.25 20 10 20C10.435 20 10.8353 19.7138 10.9609 19.2744L14.9609 5.27437C14.9875 5.18156 15 5.08906 15 4.99813ZM7.5 8.47188C7.5 7.90063 7.03281 7.47187 6.5 7.47187C6.24413 7.47187 5.98812 7.56953 5.79312 7.76487L2.29313 11.2649C2.09766 11.4875 2 11.7438 2 11.9719C2 12.2 2.09766 12.5125 2.29297 12.7063L5.79297 16.2063C5.9875 16.4031 6.24375 16.4719 6.5 16.4719C7.03281 16.4719 7.5 16.0428 7.5 15.4719C7.5 15.216 7.40234 14.96 7.20703 14.7647L4.41406 11.9719L7.20719 9.17875C7.40313 9.00938 7.5 8.75625 7.5 8.47188ZM22 11.9719C22 11.716 21.9023 11.46 21.707 11.2647L18.207 7.76469C18.0125 7.59688 17.7562 7.47187 17.5 7.47187C16.9672 7.47187 16.5 7.90094 16.5 8.47188C16.5 8.72775 16.5977 8.98375 16.793 9.17906L19.5861 11.9722L16.793 14.7653C16.5969 14.9875 16.5 15.2438 16.5 15.4719C16.5 16.0431 16.9672 16.4719 17.5 16.4719C17.7559 16.4719 18.0119 16.3742 18.2069 16.1789L21.7069 12.6789C21.9031 12.5125 22 12.2563 22 11.9719Z" fill="white"/>
</svg>
