<svg width="24" height="24" viewBox="0 0 24 24" fill="none" xmlns="http://www.w3.org/2000/svg">
<path d="M8.40467 3.12136C8.65542 2.44629 9.28789 2 9.9938 2H14.0062C14.7121 2 15.3446 2.44629 15.5953 3.12136L15.9863 4.17391H19.65C20.1194 4.17391 20.5 4.56323 20.5 5.04348C20.5 5.52373 20.1194 5.91304 19.65 5.91304H15.4C15.047 5.91304 14.7308 5.6899 14.6054 5.35236L14.0062 3.73913H9.9938L9.39457 5.35236C9.26919 5.6899 8.95296 5.91304 8.6 5.91304H4.35C3.88056 5.91304 3.5 5.52373 3.5 5.04348C3.5 4.56323 3.88056 4.17391 4.35 4.17391H8.0137L8.40467 3.12136Z" fill="white"/>
<path d="M9.99063 11.3233C9.65868 10.9838 9.12049 10.9838 8.78855 11.3233C8.4566 11.6629 8.4566 12.2135 8.78855 12.5531L10.7979 14.6087L8.78855 16.6643C8.4566 17.0039 8.4566 17.5545 8.78855 17.8941C9.12049 18.2337 9.65868 18.2337 9.99063 17.8941L12 15.8385L14.0094 17.8941C14.3413 18.2337 14.8795 18.2337 15.2114 17.8941C15.5434 17.5545 15.5434 17.0039 15.2114 16.6643L13.2021 14.6087L15.2114 12.5531C15.5434 12.2135 15.5434 11.6629 15.2114 11.3233C14.8795 10.9838 14.3413 10.9838 14.0094 11.3233L12 13.379L9.99063 11.3233Z" fill="white"/>
<path d="M4.35 8.30435C4.35 7.8241 4.73056 7.43478 5.2 7.43478H18.8C19.2694 7.43478 19.65 7.8241 19.65 8.30435V19.3913C19.65 20.832 18.5083 22 17.1 22H6.9C5.49167 22 4.35 20.832 4.35 19.3913V8.30435ZM6.05 9.17391V19.3913C6.05 19.8716 6.43056 20.2609 6.9 20.2609H17.1C17.5694 20.2609 17.95 19.8716 17.95 19.3913V9.17391H6.05Z" fill="white"/>
</svg>
