<svg width="24" height="24" viewBox="0 0 24 24" fill="none" xmlns="http://www.w3.org/2000/svg">
<path d="M12.6815 7.16472C12.2534 6.94639 11.7466 6.94639 11.3185 7.16472L5.81851 9.96972C5.31621 10.2259 5 10.7421 5 11.306V17.9997C5 19.6566 6.34315 20.9997 8 20.9997H8.86047C9.48981 20.9997 10 20.4895 10 19.8602V16.9997C10 15.8951 10.8954 14.9997 12 14.9997C13.1046 14.9997 14 15.8951 14 16.9997V19.8602C14 20.4895 14.5102 20.9997 15.1395 20.9997H16C17.6569 20.9997 19 19.6566 19 17.9997V11.306C19 10.7421 18.6838 10.2259 18.1815 9.96972L12.6815 7.16472Z" fill="white"/>
<path fill-rule="evenodd" clip-rule="evenodd" d="M3.10555 8.44699C3.35254 8.94097 3.95321 9.1412 4.44719 8.89421L12 5.11781L19.5528 8.89421C20.0467 9.1412 20.6474 8.94097 20.8944 8.44699C21.1414 7.95302 20.9412 7.35234 20.4472 7.10535L12.4472 3.10535C12.1657 2.96459 11.8343 2.96459 11.5528 3.10535L3.55276 7.10535C3.05878 7.35234 2.85856 7.95302 3.10555 8.44699Z" fill="white"/>
</svg>
