<svg width="13" height="12" viewBox="0 0 13 12" fill="none" xmlns="http://www.w3.org/2000/svg">
<path d="M12.5 6C12.5 9.31371 9.81371 12 6.5 12C3.18629 12 0.5 9.31371 0.5 6C0.5 2.68629 3.18629 0 6.5 0C9.81371 0 12.5 2.68629 12.5 6ZM1.7 6C1.7 8.65097 3.84903 10.8 6.5 10.8C9.15097 10.8 11.3 8.65097 11.3 6C11.3 3.34903 9.15097 1.2 6.5 1.2C3.84903 1.2 1.7 3.34903 1.7 6Z" fill="white" fill-opacity="0.3"/>
<path d="M12.5 6C12.5 4.81331 12.1481 3.65327 11.4888 2.66658C10.8295 1.67988 9.89246 0.910849 8.7961 0.456723C7.69974 0.002597 6.49334 -0.116223 5.32946 0.115288C4.16557 0.3468 3.09647 0.918244 2.25736 1.75736C1.41824 2.59647 0.8468 3.66557 0.615288 4.82946C0.383777 5.99334 0.502597 7.19974 0.956723 8.2961C1.41085 9.39246 2.17988 10.3295 3.16658 10.9888C4.15327 11.6481 5.31331 12 6.5 12L6.5 10.8C5.55065 10.8 4.62262 10.5185 3.83326 9.99105C3.04391 9.46362 2.42868 8.71397 2.06538 7.83688C1.70208 6.9598 1.60702 5.99468 1.79223 5.06357C1.97744 4.13246 2.4346 3.27718 3.10589 2.60589C3.77718 1.9346 4.63246 1.47744 5.56357 1.29223C6.49468 1.10702 7.4598 1.20208 8.33688 1.56538C9.21397 1.92868 9.96362 2.54391 10.4911 3.33326C11.0185 4.12262 11.3 5.05065 11.3 6H12.5Z" fill="white"/>
</svg>
