<svg width="32" height="32" viewBox="0 0 32 32" fill="none" xmlns="http://www.w3.org/2000/svg">
<g opacity="0.7">
<path fill-rule="evenodd" clip-rule="evenodd" d="M29.6533 1.06661C29.6533 0.595331 29.2713 0.21328 28.8 0.21328C28.3287 0.21328 27.9467 0.595331 27.9467 1.06661V2.34662H26.6667C26.1954 2.34662 25.8133 2.72866 25.8133 3.19996C25.8133 3.67123 26.1954 4.05329 26.6667 4.05329H27.9467V5.33329C27.9467 5.80456 28.3287 6.18662 28.8 6.18662C29.2713 6.18662 29.6533 5.80456 29.6533 5.33329V4.05329H30.9333C31.4046 4.05329 31.7867 3.67123 31.7867 3.19996C31.7867 2.72866 31.4046 2.34662 30.9333 2.34662H29.6533V1.06661ZM25.2877 6.71236C25.7041 7.12892 25.7041 7.80429 25.2877 8.22086L23.1543 10.3542C22.7377 10.7708 22.0623 10.7708 21.6459 10.3542C21.2292 9.93764 21.2292 9.26227 21.6459 8.84569L23.779 6.71238C24.1956 6.29581 24.871 6.29581 25.2877 6.71236ZM21.021 10.979C21.4374 11.3956 21.4374 12.071 21.021 12.4875L6.08757 27.4208C5.67102 27.8374 4.99565 27.8374 4.57909 27.4208C4.16252 27.0044 4.16252 26.329 4.57909 25.9123L19.5124 10.979C19.929 10.5625 20.6044 10.5625 21.021 10.979ZM28.8 10.88C29.2713 10.88 29.6533 11.262 29.6533 11.7333V13.0133H30.9333C31.4046 13.0133 31.7867 13.3953 31.7867 13.8666C31.7867 14.3379 31.4046 14.72 30.9333 14.72H29.6533V16C29.6533 16.4712 29.2713 16.8533 28.8 16.8533C28.3287 16.8533 27.9467 16.4712 27.9467 16V14.72H26.6667C26.1954 14.72 25.8133 14.3379 25.8133 13.8666C25.8133 13.3953 26.1954 13.0133 26.6667 13.0133H27.9467V11.7333C27.9467 11.262 28.3287 10.88 28.8 10.88ZM18.9867 1.06661C18.9867 0.595331 18.6047 0.21328 18.1334 0.21328C17.6621 0.21328 17.28 0.595331 17.28 1.06661V2.34662H16C15.5287 2.34662 15.1467 2.72866 15.1467 3.19996C15.1467 3.67123 15.5287 4.05329 16 4.05329H17.28V5.33329C17.28 5.80456 17.6621 6.18662 18.1334 6.18662C18.6047 6.18662 18.9867 5.80456 18.9867 5.33329V4.05329H20.2667C20.738 4.05329 21.12 3.67123 21.12 3.19996C21.12 2.72866 20.738 2.34662 20.2667 2.34662H18.9867V1.06661Z" fill="white"/>
</g>
</svg>
