<svg width="24" height="24" viewBox="0 0 24 24" fill="none" xmlns="http://www.w3.org/2000/svg">
<path d="M15.0998 3.76361C13.4711 3.00928 11.6408 2.80693 9.88674 3.1873C8.13587 3.56684 6.6893 4.4364 5.5095 5.78869C5.43167 5.87147 5.28589 6.03337 5.109 6.2643L4.75603 4.23194C4.67244 3.75065 4.21453 3.42824 3.73326 3.51184C3.25199 3.59543 2.9296 4.05336 3.01319 4.53466L3.76714 8.87578C3.80744 9.10782 3.93861 9.31421 4.13159 9.44921C4.32458 9.5842 4.56342 9.63666 4.79521 9.59494L9.05996 8.82742C9.54071 8.7409 9.8603 8.28102 9.77379 7.80024C9.68727 7.31946 9.22741 6.99986 8.74666 7.08638L6.38731 7.51098C6.58623 7.23042 6.75196 7.04913 6.80596 6.99229C6.81498 6.9828 6.82379 6.97311 6.83237 6.96322C7.77084 5.88315 8.88762 5.21396 10.2615 4.91616C10.411 4.88373 10.5614 4.85666 10.7121 4.83498C11.9494 4.65701 13.2155 4.84055 14.3558 5.36853C15.6473 5.96847 16.7122 6.96723 17.3938 8.21785C18.0841 9.48254 18.3581 10.9333 18.1764 12.3626L18.1762 12.3639C17.9974 13.7887 17.3714 15.1201 16.3885 16.1665C15.4185 17.1989 14.1404 17.8894 12.7455 18.1348C11.3566 18.3767 9.92672 18.1593 8.67256 17.5154C7.40519 16.863 6.38031 15.8214 5.74834 14.5437C5.53177 14.1058 5.00126 13.9264 4.56342 14.143C4.12558 14.3596 3.9462 14.8901 4.16277 15.328C4.96253 16.945 6.25962 18.263 7.86363 19.0886C9.46029 19.9084 11.2815 20.1856 13.0497 19.8775L13.051 19.8773C14.8226 19.5657 16.4459 18.6889 17.6777 17.3778C18.9168 16.0587 19.7058 14.3805 19.9313 12.5848C20.1597 10.7868 19.8153 8.96238 18.947 7.37129C18.0842 5.78801 16.735 4.52313 15.0998 3.76361Z" fill="white"/>
</svg>
