<svg width="20" height="20" viewBox="0 0 20 20" fill="none" xmlns="http://www.w3.org/2000/svg">
<path d="M3.55469 13.383C4.25973 14.8084 5.40318 15.9703 6.81719 16.698C8.22106 17.4188 9.82167 17.6622 11.3764 17.3913C12.9358 17.1171 14.3646 16.3453 15.4489 15.1913C16.5431 14.0265 17.2398 12.5446 17.4389 10.9588C17.6409 9.36946 17.3365 7.75683 16.5689 6.35051C15.8084 4.95511 14.6201 3.84071 13.1789 3.17134C11.7469 2.50815 10.1377 2.33026 8.59552 2.66468C7.05385 2.99884 5.78969 3.75884 4.74552 4.96051C4.61885 5.09384 4.13219 5.63218 3.72885 6.44468" stroke="white" stroke-width="2.5" stroke-linecap="round" stroke-linejoin="round"/>
<path d="M7.4425 6.51038L3.2425 7.26621L2.5 2.99121" stroke="white" stroke-width="2.5" stroke-linecap="round" stroke-linejoin="round"/>
</svg>
