<svg width="24" height="24" viewBox="0 0 24 24" fill="none" xmlns="http://www.w3.org/2000/svg">
<path fill-rule="evenodd" clip-rule="evenodd" d="M11.5001 2C10.6716 2 10.0001 2.67157 10.0001 3.5V3.86441C10.0001 4.09255 9.84509 4.29017 9.62719 4.35776C9.15618 4.50384 8.70379 4.69226 8.27449 4.91859C8.07264 5.025 7.82327 4.99485 7.66193 4.8335L7.40381 4.57538C6.81802 3.98959 5.86827 3.98959 5.28249 4.57538L4.57538 5.28249C3.98959 5.86827 3.98959 6.81802 4.57538 7.40381L4.8335 7.66193C4.99485 7.82327 5.025 8.07264 4.91859 8.27449C4.69227 8.70378 4.50385 9.15614 4.35778 9.62713C4.29019 9.84503 4.09257 10 3.86443 10H3.5C2.67157 10 2 10.6716 2 11.5V12.5C2 13.3284 2.67157 14 3.5 14H3.86443C4.09257 14 4.29019 14.155 4.35777 14.3729C4.50385 14.8439 4.69227 15.2962 4.91859 15.7255C5.025 15.9274 4.99485 16.1767 4.8335 16.3381L4.57538 16.5962C3.98959 17.182 3.98959 18.1317 4.57538 18.7175L5.28249 19.4246C5.86827 20.0104 6.81802 20.0104 7.40381 19.4246L7.66192 19.1665C7.82327 19.0052 8.07264 18.975 8.27449 19.0814C8.70379 19.3077 9.15618 19.4962 9.62719 19.6422C9.84509 19.7098 10.0001 19.9074 10.0001 20.1356V20.5C10.0001 21.3284 10.6716 22 11.5001 22H12.5001C13.3285 22 14.0001 21.3284 14.0001 20.5V20.1355C14.0001 19.9074 14.155 19.7098 14.3729 19.6422C14.8439 19.4961 15.2962 19.3077 15.7255 19.0814C15.9274 18.975 16.1767 19.0052 16.3381 19.1665L16.5962 19.4246C17.182 20.0104 18.1317 20.0104 18.7175 19.4246L19.4246 18.7175C20.0104 18.1317 20.0104 17.182 19.4246 16.5962L19.1665 16.3381C19.0052 16.1767 18.975 15.9274 19.0814 15.7255C19.3077 15.2962 19.4961 14.8439 19.6422 14.3729C19.7098 14.155 19.9074 14 20.1356 14H20.5C21.3284 14 22 13.3284 22 12.5V11.5C22 10.6716 21.3284 10 20.5 10H20.1356C19.9074 10 19.7098 9.84503 19.6422 9.62713C19.4961 9.15614 19.3077 8.70378 19.0814 8.27449C18.975 8.07264 19.0052 7.82328 19.1665 7.66193L19.4246 7.40381C20.0104 6.81802 20.0104 5.86827 19.4246 5.28249L18.7175 4.57538C18.1317 3.98959 17.182 3.98959 16.5962 4.57538L16.3381 4.8335C16.1767 4.99485 15.9274 5.025 15.7255 4.91859C15.2962 4.69228 14.8439 4.50387 14.3729 4.35779C14.155 4.29021 14.0001 4.09259 14.0001 3.86445V3.5C14.0001 2.67157 13.3285 2 12.5001 2H11.5001ZM12 15C13.6569 15 15 13.6569 15 12C15 10.3431 13.6569 9 12 9C10.3431 9 9 10.3431 9 12C9 13.6569 10.3431 15 12 15Z" fill="white"/>
</svg>
